<svg width="24" height="24" viewBox="0 0 24 24" fill="none" xmlns="http://www.w3.org/2000/svg">
<g clip-path="url(#clip0_1933_33888)">
<path d="M23.7975 11.3922C21.0633 8.05041 17.0127 6.12636 12.7595 5.92383H11.5443L9.51899 6.12636C8.91139 6.22763 8.20253 6.43016 7.59494 6.63269C6.98734 6.83522 6.27848 7.13902 5.67089 7.34155C5.06329 7.64535 4.4557 7.94914 3.8481 8.35421C3.44304 8.65801 2.53165 9.36687 2.12658 9.67066C1.51899 10.177 1.01266 10.7846 0.506329 11.2909L0 11.9998C0.303797 12.6074 0.708861 13.1137 1.21519 13.62C1.62025 13.0124 2.12658 12.5061 2.63291 11.9998L2.73418 11.8985L3.74684 15.4428C4.55696 15.9491 5.36709 16.4555 6.17722 16.7593L4.4557 10.4808C5.06329 10.0757 5.67089 9.67066 6.27848 9.36687L8.50633 17.6707C9.21519 17.8732 9.92405 17.9745 10.7342 18.0757L8.10127 8.55674C8.70886 8.35421 9.41772 8.25294 10.0253 8.05041L12.6582 17.9745L14.6835 17.7719C18.2278 17.1643 21.3671 15.3415 23.6962 12.6074C24.1013 12.3036 24.1013 11.696 23.7975 11.3922ZM16.2025 11.9998C16.2025 13.4175 15.3924 14.734 14.1772 15.4428L13.7722 13.9238C14.3797 13.4175 14.6835 12.7086 14.6835 11.9998C14.6835 10.7846 13.7722 9.67066 12.557 9.46813L12.1519 7.94914C14.3797 7.94914 16.2025 9.77193 16.2025 11.9998ZM17.519 14.9365C18.5316 13.1137 18.5316 10.8859 17.519 9.16433C19.038 9.8732 20.4557 10.8859 21.6709 12.101C20.4557 13.215 19.038 14.2276 17.519 14.9365Z" fill="black"/>
</g>
<defs>
<clipPath id="clip0_1933_33888">
<rect width="24" height="24" fill="white"/>
</clipPath>
</defs>
</svg>
